<?xml version="1.0" encoding="UTF-8" standalone="no"?>
<!-- Created with Inkscape (http://www.inkscape.org/) -->

<svg
   version="1.1"
   id="svg1"
   width="341.33334"
   height="341.33334"
   viewBox="0 0 341.33334 341.33334"
   xmlns="http://www.w3.org/2000/svg"
   xmlns:svg="http://www.w3.org/2000/svg">
  <defs
     id="defs1" />
  <g
     id="g1">
    <g
       id="g3354">
      <path
         style="fill:#a09ecc"
         d="m 150.38458,325.66668 c -1.23822,-1.42413 -2.35467,-6.40073 -2.86519,-12.7716 -0.8115,-10.12688 -0.71234,-10.61863 3.32398,-16.48523 3.94397,-5.73236 4.11411,-6.49906 3.27019,-14.73622 -0.48963,-4.77909 -1.69501,-10.61534 -2.67862,-12.96944 -0.98361,-2.35411 -2.21975,-8.57559 -2.74698,-13.82552 -0.76311,-7.59876 -0.59112,-9.54904 0.84339,-9.56354 0.99109,-0.01 3.04074,-0.3509 4.55478,-0.75752 2.46854,-0.66298 2.91599,0.14642 4.33333,7.8386 0.8693,4.71786 1.57658,10.90875 1.57173,13.75753 -0.005,2.84878 0.67621,9.68095 1.51346,15.1826 1.52227,10.00301 1.52227,10.00301 -2.65785,16.59438 -4.86837,7.67661 -5.40772,13.87837 -1.51346,17.40262 3.32735,3.01122 3.42677,7.56548 0.22834,10.46002 -3.10279,2.80799 -4.64927,2.78069 -7.1771,-0.12668 z m 3.13942,-9.83334 c -2.20307,-8.48514 -1.75797,-11.67947 2.4872,-17.8496 4.20142,-6.10656 4.29467,-6.5422 3.23969,-15.13563 -0.59744,-4.86646 -1.23501,-11.5481 -1.41682,-14.8481 -0.1818,-3.3 -0.36885,-6.45 -0.41564,-7 -0.11101,-1.3046 -1.64393,-1.23884 -3.8593,0.16557 -1.46775,0.93046 -1.42976,2.28458 0.21991,7.83963 1.09676,3.69319 2.40809,10.02829 2.91407,14.078 0.84972,6.80096 0.6039,7.82246 -3.21991,13.38018 -2.27692,3.3094 -4.13326,7.40898 -4.12519,9.11019 0.0305,6.42138 1.72363,13.17884 3.16794,12.64334 0.81623,-0.30264 1.26985,-1.37524 1.00805,-2.38358 z m -37.68275,1.63956 c -2.68845,-2.17697 -2.93457,-3.05447 -1.77639,-6.33333 1.20295,-3.40561 1.97426,-3.81276 7.32815,-3.86826 7.61243,-0.0789 8.17576,-0.46756 14.7847,-10.19965 5.31245,-7.82293 5.47028,-8.36246 4.67421,-15.97877 -0.45313,-4.33536 -1.57307,-9.20481 -2.48875,-10.82101 -1.3184,-2.32701 -5.18022,-20.95281 -4.52305,-21.81495 0.0879,-0.11537 2.25988,-0.41537 4.82655,-0.66667 4.66667,-0.45692 4.66667,-0.45692 6.27945,8.87641 0.88704,5.13334 2.28889,14.89978 3.11524,21.70321 1.50245,12.36987 1.50245,12.36987 -4.69726,22.3169 -6.21556,9.97245 -10.19293,13.95421 -13.9941,14.00954 -1.12017,0.0163 -3.53666,1.20297 -5.37,2.63702 -4.13496,3.23442 -4.33259,3.2378 -8.15875,0.13956 z m 17.74097,-6.29338 c 0.51473,-0.31811 3.74443,-5.08455 7.17712,-10.59208 6.2387,-10.00958 6.24082,-10.01709 5.165,-18.30056 -0.59194,-4.55778 -1.22367,-10.38687 -1.40385,-12.95354 -0.18018,-2.56667 -0.371,-5.06049 -0.42404,-5.54184 -0.0531,-0.48134 -1.29645,-0.56137 -2.76311,-0.17782 -2.85466,0.74651 -3.47393,3.04573 -1.38341,5.13626 0.7058,0.70579 1.99738,5.47579 2.87018,10.6 1.58692,9.31674 1.58692,9.31674 -4.57977,18.82662 -6.12854,9.45105 -8.11853,11.15678 -13.01605,11.15678 -1.46306,0 -2.55762,0.91943 -2.55762,2.14839 0,1.75967 0.90283,1.97902 4.98985,1.21229 2.74441,-0.51486 5.41098,-1.19638 5.9257,-1.5145 z m 57.5136,-4.31638 c -5.26739,-6.11653 -5.72266,-7.33302 -8.35784,-22.33268 -1.53285,-8.72508 -3.64022,-18.86379 -4.68304,-22.53045 -1.04282,-3.66667 -2.28723,-9.81044 -2.76537,-13.65282 -0.83748,-6.73027 -0.73477,-7.03732 2.80434,-8.38289 2.02052,-0.76819 4.13425,-0.92442 4.69717,-0.34717 1.63485,1.67643 5.22896,18.77924 4.40025,20.93883 -0.85938,2.2395 3.05693,28.99705 5.0133,34.25262 0.80738,2.16895 3.39266,4.42426 6.87784,6 5.93497,2.68335 7.88809,6.94547 4.85663,10.59815 -2.98024,3.59097 -7.09011,2.13701 -12.84328,-4.54359 z m 6.14446,-2.08433 c 1.2522,-1.50881 1.01013,-2.06455 -1.2056,-2.76779 -1.52481,-0.48396 -3.621,-2.18442 -4.65819,-3.7788 -2.14576,-3.29848 -7.47039,-32.8361 -7.01215,-38.89888 0.25239,-3.33925 -0.13817,-3.924 -2.36433,-3.53991 -3.74046,0.64536 -3.88435,0.98924 -2.16062,5.16382 0.84242,2.04019 2.95206,11.69505 4.68809,21.45526 2.47247,13.90052 3.81887,18.45097 6.21356,21 3.54053,3.76872 4.36207,3.94143 6.49924,1.3663 z m -29.39867,2.73935 c -1.11024,-2.43671 -0.94627,-4.09277 0.7253,-7.32523 1.98284,-3.8344 1.98718,-5.24281 0.0529,-17.18482 -1.15881,-7.15445 -2.94838,-15.1081 -3.97682,-17.67477 -2.85772,-7.13197 -4.08886,-22.66198 -1.79833,-22.68487 1.00209,-0.01 3.07994,-0.35592 4.61743,-0.76868 2.48923,-0.66827 2.96391,0.0883 4.33334,6.90724 0.84584,4.21175 1.56244,11.00766 1.59244,15.10202 0.03,4.09436 1.47501,14.94429 3.21112,24.11096 2.78711,14.71593 2.93318,17.0178 1.24804,19.66667 -2.59318,4.07621 -8.11789,3.9942 -10.00544,-0.14852 z m 7.1584,-0.40119 c -0.91667,-0.36988 -2.41667,-0.36988 -3.33334,0 -0.91666,0.36988 -0.16666,0.67251 1.66667,0.67251 1.83333,0 2.58333,-0.30263 1.66667,-0.67251 z m 1,-8.21711 c 0,-1.33841 -1.22514,-9.23731 -2.72253,-17.55311 -1.49739,-8.3158 -2.54739,-16.79407 -2.33334,-18.84061 0.21406,-2.04653 -0.0608,-3.74763 -0.6108,-3.78021 -4.82279,-0.28576 -5.28364,0.026 -4.34734,2.94074 1.88713,5.87474 7.14279,34.91895 6.50535,35.95035 -0.82798,1.3397 0.61347,3.71632 2.25401,3.71632 0.69006,0 1.25465,-1.09506 1.25465,-2.43348 z m 55.31244,-0.80872 c -1.91946,-2.51654 -7.33574,-7.39902 -12.03618,-10.84996 -9.34065,-6.85766 -8.97982,-6.23895 -11.99904,-20.57451 -4.651,-22.08338 -5.90585,-29.90343 -4.94797,-30.8349 0.55225,-0.53702 2.62797,-1.37734 4.61272,-1.86739 3.18273,-0.78584 3.70405,-0.4429 4.417,2.90565 0.44459,2.08815 1.14298,5.29664 1.55198,7.12998 0.409,1.83333 0.90195,7.53333 1.09545,12.66666 0.57897,15.35953 2.23575,19.19752 11.00665,25.49723 4.20949,3.02347 9.15361,5.9469 10.98695,6.49652 5.01668,1.50394 6.66666,3.29488 6.66666,7.23618 0,7.78149 -6.18155,8.97626 -11.35422,2.19454 z m 6.02089,-5.05484 c 1.30572,-0.42768 0.28987,-1.38124 -2.92632,-2.74687 -6.5012,-2.76049 -19.46714,-12.61272 -20.28138,-15.41088 -1.77658,-6.10532 -3.15057,-17.29464 -2.52284,-20.54521 0.60253,-3.12009 0.26255,-3.66667 -2.28069,-3.66667 -2.68386,0 -2.8889,0.44208 -2.00985,4.33334 0.53841,2.38333 1.74578,8.53333 2.68305,13.66666 1.55655,8.52506 2.19847,9.73748 7.41237,14.00001 3.13953,2.56666 7.85434,6.56798 10.47735,8.89181 2.66152,2.35793 5.36113,3.76284 6.10872,3.17903 0.73677,-0.57537 2.23959,-1.34091 3.33959,-1.70122 z m -140.46002,4.52539 c -4.754972,-5.25419 -0.486193,-13.18593 6.19416,-11.50927 1.85959,0.46673 6.68254,0.16322 10.71766,-0.67447 8.22427,-1.70735 12.47917,-6.06882 10.90753,-11.18071 -1.92136,-6.24942 -4.34167,-21.58354 -3.5419,-22.44006 0.46708,-0.50022 2.61192,-1.10022 4.76631,-1.33333 3.79057,-0.41015 3.9717,-0.16548 5.60849,7.57616 4.60109,21.76217 -0.2616,32.56733 -15.60617,34.67775 -4.07483,0.56043 -8.18628,2.17424 -10.50066,4.12166 -4.56613,3.84214 -5.66913,3.94053 -8.54542,0.76227 z m 20.71589,-7.38573 c 9.15519,-2.03305 13.07746,-7.30624 13.07746,-17.58164 0,-6.35489 -0.24967,-6.94604 -2.66667,-6.31398 -3.12571,0.81739 -3.13838,0.89251 -1.10073,6.52753 1.41346,3.90885 1.22172,4.7818 -1.96919,8.96531 -2.96647,3.88924 -4.6661,4.79297 -10.56593,5.61818 -3.86695,0.54087 -9.13081,0.94386 -11.69748,0.89553 -4.051936,-0.0763 -4.271483,0.069 -1.66667,1.10299 1.65,0.65497 3,1.82163 3,2.59257 0,0.82484 1.35545,1.0615 3.29362,0.57505 1.81148,-0.45465 6.4445,-1.52634 10.29559,-2.38154 z m 77.33867,-7.86122 c -0.76926,-0.9269 -1.39205,-5.5769 -1.38398,-10.33333 0.008,-4.75644 -0.86974,-10.74807 -1.95068,-13.31474 -1.08094,-2.56666 -2.38177,-8.3412 -2.89073,-12.83231 -0.92539,-8.16564 -0.92539,-8.16564 3.24477,-8.77769 2.29358,-0.33663 4.50525,-0.0699 4.91481,0.59284 1.69944,2.74975 4.05682,18.04132 3.48389,22.59889 -0.42909,3.41333 0.30708,6.7671 2.40942,10.97663 2.52477,5.05535 2.77341,6.61878 1.49788,9.41827 -1.6745,3.67514 -6.88708,4.60941 -9.32538,1.67144 z m 5.60467,-10.52416 c -1.28192,-2.45148 -2.45993,-7.75724 -2.61782,-11.79057 -0.35069,-8.95882 -0.077,-8.36375 -3.10173,-6.74498 -2.30642,1.23436 -2.36798,1.77591 -0.72519,6.38025 0.98733,2.76727 1.82148,7.28139 1.85367,10.03139 0.0479,4.09161 0.543,5 2.72519,5 1.46667,0 2.66667,0.7 2.66667,1.55556 0,0.85556 0.34424,1.21131 0.76498,0.79057 0.42074,-0.42074 -0.28386,-2.77074 -1.56577,-5.22222 z m 35.46746,3.18781 c -1.1,-0.40962 -5.03227,-3.03052 -8.73837,-5.82423 -5.64125,-4.25245 -6.98342,-6.1167 -8.24349,-11.45014 -2.36886,-10.0266 -4.7322,-24.43441 -4.11005,-25.05655 0.31129,-0.31129 2.58922,-0.73432 5.06206,-0.94006 4.49607,-0.37407 4.49607,-0.37407 6.17824,8.2926 0.9252,4.76666 1.34902,10.64066 0.94183,13.05332 -0.81561,4.83266 1.39381,8.23843 7.97796,12.29786 3.4296,2.1145 4.57382,2.14587 14,0.38387 5.64583,-1.05535 11.67166,-2.82833 13.39074,-3.93996 7.19316,-4.65141 14.4186,3.25331 8.43926,9.23265 -2.31415,2.31415 -3.32427,2.53949 -5.97322,1.33255 -2.3737,-1.08153 -5.53868,-0.97382 -12.38986,0.42163 -5.06097,1.03083 -10.40177,2.1143 -11.86844,2.40773 -1.46666,0.29342 -3.56666,0.19835 -4.66666,-0.21127 z m 17.66666,-4.39363 c 6.79983,-1.13811 10.33334,-2.33168 10.33334,-3.49047 0,-2.19842 0.22962,-2.2056 -12.91566,0.40373 -12.95794,2.57214 -15.47784,2.10681 -22.26703,-4.11185 -4.76607,-4.36555 -5.09371,-5.12242 -4.31781,-9.97461 0.88937,-5.56183 -0.11245,-7.29885 -3.13295,-5.43208 -1.52586,0.94303 -1.56228,2.34875 -0.21361,8.24535 1.43789,6.28671 2.42862,7.69583 8.56979,12.18879 4.92416,3.60259 7.91349,4.90872 10.27727,4.49047 1.83333,-0.3244 7.98333,-1.3681 13.66666,-2.31933 z M 61.07553,269.96665 c -1.361059,-2.9872 -1.072464,-3.8514 2.560253,-7.66667 2.251823,-2.36498 6.79628,-8.51431 10.098794,-13.66516 7.026715,-10.9594 13.378481,-14.92393 24.933952,-15.5628 C 106,232.66667 106,232.66667 106.40203,237.46881 c 0.40202,4.80213 0.40202,4.80213 -7.222378,6.33333 -4.19342,0.84216 -9.028265,1.5312 -10.7441,1.5312 -2.395634,0 -4.470922,2.10804 -8.941555,9.08269 -3.202021,4.99547 -6.271521,10.54547 -6.821111,12.33333 -1.48812,4.84096 -3.305462,6.58398 -6.864729,6.58398 -2.126461,0 -3.712848,-1.12852 -4.732627,-3.36669 z m 15.591139,-15.29998 c 3.656626,-5.86666 7.552519,-10.73587 8.657539,-10.82046 1.105021,-0.0846 2.899313,-0.23459 3.987318,-0.33334 2.255137,-0.20466 3.510321,-4.55769 1.805718,-6.26229 -2.218592,-2.21859 -9.904031,4.51152 -17.128666,14.99951 -6.522625,9.46888 -7.876505,13.08325 -4.900759,13.08325 0.511741,0 3.922223,-4.8 7.57885,-10.66667 z m -47.066668,3.73334 c -2.22074,-2.22074 -2.00015,-7.14271 0.428985,-9.57185 1.467831,-1.46783 3.772575,-1.84566 8.333334,-1.36615 10.617766,1.11634 13.54639,-0.48753 21.049992,-11.52805 4.238675,-6.23663 7.955101,-10.25843 10,-10.82169 1.789896,-0.49302 7.454357,-2.10151 12.58769,-3.57442 5.133334,-1.47291 11.898513,-3.031 15.033731,-3.46242 6.039027,-0.83099 6.624597,-0.35578 7.283757,5.91093 0.30568,2.90615 -0.39822,3.51562 -5.65082,4.89269 -3.3,0.86516 -9.360467,1.6213 -13.467703,1.68032 -11.941319,0.17158 -14.570665,1.69423 -21.217302,12.28689 -5.798793,9.24145 -9.097626,11.82041 -15.119874,11.82041 -1.630536,0 -5.318342,1.2 -8.195123,2.66667 -6.006636,3.06236 -8.801584,3.33175 -11.066667,1.06667 z m 5.733333,-1.06667 c 0.453225,-0.73333 -0.146775,-1.33333 -1.333333,-1.33333 -1.186558,0 -1.786558,0.6 -1.333333,1.33333 0.453225,0.73333 1.053225,1.33333 1.333333,1.33333 0.280108,0 0.880108,-0.6 1.333333,-1.33333 z M 62.390718,240.8984 c 6.027392,-8.67706 7.846534,-10.37234 12.46455,-11.61584 2.973942,-0.8008 7.298119,-1.26698 9.609284,-1.03594 3.559153,0.35578 4.270871,-0.0661 4.65146,-2.75756 0.49649,-3.51102 1.502584,-3.52934 -13.510811,0.24606 -4.250474,1.06886 -7.930037,2.16572 -8.176807,2.43747 -0.24677,0.27174 -3.198792,4.76774 -6.560048,9.99109 -5.509008,8.56094 -6.6997,9.64516 -12.080287,11 -3.282901,0.82665 -7.203219,1.50299 -8.711818,1.50299 -1.762555,0 -2.742907,0.86643 -2.742907,2.42417 0,2.32399 0.371899,2.33208 9.000001,0.19579 8.994341,-2.22698 9.004437,-2.23477 16.057383,-12.38823 z m -19.457383,-9.16506 c -3.089025,-3.08902 -1.615335,-7.16758 4.766051,-13.19043 5.684616,-5.36523 7.432971,-6.19721 16.333334,-7.77246 5.482005,-0.97024 12.067282,-2.53617 14.633949,-3.47985 4.969129,-1.82699 21.348791,-5.09743 21.952741,-4.38319 0.19809,0.23426 0.75186,2.59549 1.23059,5.24717 0.87043,4.82124 0.87043,4.82124 -7.489782,6.48711 -4.598119,0.91624 -12.260216,1.86035 -17.026882,2.09803 -4.766667,0.23769 -11.366667,1.22931 -14.666667,2.20362 -5.192414,1.53303 -6.407255,2.62068 -9.025717,8.08073 -3.138115,6.54365 -7.121379,8.29551 -10.707617,4.70927 z m 9.733782,-9.06808 c 0.465749,-1.46745 1.856182,-3.20224 3.089851,-3.85509 4.004666,-2.11926 24.402435,-5.72591 27.701107,-4.898 2.781339,0.69807 3.208594,0.33736 3.208594,-2.70886 0,-2.97681 -0.458739,-3.39993 -3,-2.76705 -12.178187,3.03289 -19.700045,4.75458 -23.986521,5.49031 -5.725273,0.98268 -14.036103,8.59741 -11.288959,10.34342 2.50756,1.59373 3.362624,1.27283 4.275928,-1.60473 z m 207.181623,3.37779 c -4.08221,-6.91883 -11.0679,-10.70971 -19.73543,-10.70971 -6.71872,0 -7.28831,-0.25075 -8.20324,-3.61138 -1.16407,-4.27573 0.21963,-5.68087 6.7566,-6.86126 2.56667,-0.46347 6.30572,-1.21458 8.30901,-1.66913 3.0356,-0.6888 3.8534,-0.27135 4.90935,2.50602 1.21424,3.1937 6.49301,7.55488 15.78164,13.03839 6.73054,3.97334 5.41108,11.93069 -1.9783,11.93069 -2.13728,0 -3.96585,-1.44779 -5.83963,-4.62362 z m 4.15127,-2.04304 c 0,-0.73334 0.9,-1.33334 2,-1.33334 3.21171,0 2.30837,-2.1009 -1.66667,-3.87619 -6.48086,-2.89441 -13.38332,-8.22962 -14.07649,-10.88032 -0.94462,-3.61224 -3.59018,-3.22133 -3.59018,0.53049 0,2.15517 1.83723,4.4267 5.99582,7.41318 3.29771,2.36823 6.61882,5.46994 7.38025,6.89269 1.45889,2.72596 3.95727,3.51734 3.95727,1.25349 z m 38.47774,-3 c -3.81455,-5.73929 -30.84743,-25.56377 -35.50308,-26.03608 -2.00273,-0.20318 -6.94133,0.58475 -10.97466,1.75094 -9.0708,2.62272 -24.49861,5.89764 -25.07375,5.3225 -0.23441,-0.23441 -0.68939,-2.54807 -1.01105,-5.14147 -0.45529,-3.67078 -0.0677,-4.85714 1.74998,-5.35582 5.7411,-1.57508 13.47659,-2.78174 19.00148,-2.96404 3.3,-0.10888 9.42492,-0.66439 13.61094,-1.23446 7.61093,-1.03648 7.61093,-1.03648 24,10.94526 9.01399,6.58995 18.13372,12.82131 20.26608,13.84745 5.80752,2.79473 7.05029,5.58521 4.33382,9.73106 -3.07996,4.70062 -6.91234,4.38174 -10.39976,-0.86534 z m 5.55904,-5.02274 c 1.16821,-0.72199 0.29652,-1.74587 -2.84262,-3.33893 -2.49012,-1.26369 -10.82749,-6.9333 -18.52749,-12.59913 -7.70001,-5.66584 -14.95827,-10.63846 -16.12947,-11.05028 -1.17121,-0.41182 -5.97121,0.0334 -10.66667,0.98934 -4.69546,0.95596 -9.97647,1.65193 -11.73559,1.54659 -3.51731,-0.21062 -4.70859,1.50068 -2.9634,4.25697 0.93616,1.47856 2.1239,1.44772 6.97832,-0.18118 3.21758,-1.07965 8.41502,-2.38673 11.54987,-2.90461 5.56578,-0.91947 6.05148,-0.68493 20.66667,9.97964 8.23181,6.00669 16.1019,12.40988 17.48907,14.22931 1.75839,2.30632 2.82107,2.82439 3.50929,1.71083 0.54293,-0.87848 1.74534,-2.06583 2.67202,-2.63855 z m -283.163473,4.25108 c -1.213657,-1.34107 -2.20665,-3.43759 -2.20665,-4.65892 0,-2.005 10.808796,-14.23609 12.580643,-14.23609 2.912864,0 37.15404,-7.10723 41.419359,-8.59716 8.108484,-2.83239 19.677413,-4.9345 20.757362,-3.77168 0.528934,0.56953 1.356707,2.91322 1.839496,5.20821 0.877793,4.17271 0.877793,4.17271 -8.51814,6.29458 -5.167765,1.16703 -10.268056,1.78721 -11.333979,1.37818 -1.065923,-0.40904 -10.519549,0.88274 -21.008058,2.87061 -19.663041,3.72671 -23.736682,5.67224 -23.736682,11.3364 0,2.79577 -3.399525,6.61419 -5.888588,6.61419 -0.933962,0 -2.691105,-1.09724 -3.904763,-2.43832 z m 8.460017,-7.9735 c 0,-3.91503 4.529586,-5.7007 24.345901,-9.59774 11.556913,-2.27275 21.635645,-3.7472 22.397184,-3.27654 2.552435,1.57749 5.082676,-0.42553 4.303135,-3.40649 -0.573306,-2.19233 -1.401046,-2.65087 -3.56317,-1.97387 -1.54901,0.48501 -11.216382,2.62503 -21.483049,4.75558 -10.266667,2.13056 -19.998836,4.18905 -21.627041,4.57444 -3.418313,0.80908 -9.888613,7.29609 -8.88959,8.91254 0.872082,1.41106 4.51663,1.4208 4.51663,0.0121 z m 80.565066,-6.03881 c -1.13541,-2.95884 5.8078,-46.49874 7.7096,-48.34582 3.00927,-2.9227 10.99077,-3.69521 13.01228,-1.25944 3.1766,3.82756 22.71306,38.27634 22.71306,40.05008 0,1.84977 -2.849,3.33175 -6.44239,3.35117 -1.22335,0.007 -3.75048,-1.84443 -5.61583,-4.11342 -3.39155,-4.12544 -3.39155,-4.12544 -11.21037,-2.08366 -8.221,2.1468 -10.01086,3.65072 -10.04433,8.4397 -0.0229,3.27742 -0.48577,3.67637 -5.71636,4.9271 -2.56333,0.61293 -3.91344,0.31699 -4.40566,-0.96571 z m 5.66256,-1.91647 c 0.85852,-0.54612 1.96739,-2.61232 2.46415,-4.59156 1.23342,-4.91435 3.23439,-6.2881 12.19208,-8.37038 8.3908,-1.95051 11.70757,-1.109 13.1157,3.32763 0.94169,2.967 7.85906,3.9429 7.09821,1.00141 -0.2371,-0.91666 -5.18515,-9.97828 -10.99566,-20.13693 -10.56456,-18.47027 -10.56456,-18.47027 -15.1652,-17.72369 -2.53035,0.41062 -4.87628,1.02222 -5.21317,1.35911 -0.66071,0.66071 -6.95626,39.97709 -7.01908,43.83485 -0.0407,2.49931 1.02113,2.891 3.52297,1.29956 z m 5.07547,-17.68183 c -0.7836,-1.2679 -0.24757,-6.93283 1.54088,-16.2844 1.15719,-6.05076 5.18938,-4.67691 9.78321,3.33333 4.68569,8.17043 5.01071,11.05306 1.46047,12.95309 -3.33505,1.78487 -11.68102,1.78355 -12.78456,-0.002 z m 12.03024,-2.86727 c 1.43777,-1.33558 -4.68595,-13.75046 -6.7825,-13.75046 -1.42019,0 -3.61604,12.37158 -2.64499,14.90209 0.74829,1.95002 6.89714,1.1989 9.42749,-1.15163 z m 151.71522,7.3992 c -9.43298,-6.93521 -18.29844,-12.483 -19.94806,-12.483 -4.85432,0 -16.89823,2.805 -19.76716,4.60372 -2.35831,1.47858 -19.34942,5.17023 -20.12667,4.37292 -0.16619,-0.17049 -0.70703,-2.47777 -1.20186,-5.12729 -0.8997,-4.81732 -0.8997,-4.81732 8.88108,-6.89905 9.74113,-2.07329 30.20918,-4.9503 35.21818,-4.9503 1.44778,0 10.41664,5.73397 19.9308,12.74214 18.00924,13.2657 18.19119,13.33143 26.99906,9.75452 5.17594,-2.10198 8.72111,-0.54767 9.4123,4.12663 0.70413,4.76172 -1.8606,6.03256 -12.49842,6.19304 -9.92042,0.14967 -9.92042,0.14967 -26.89925,-12.33333 z m 30.28453,7.09382 c 2e-4,-1.92668 -0.61444,-2.21392 -2.99974,-1.40189 -5.83215,1.98544 -8.80099,0.67963 -23.96503,-10.54078 -20.67912,-15.3012 -19.04176,-14.64119 -30.59867,-12.33424 -5.3733,1.0726 -11.86964,2.11891 -14.43631,2.32514 -3.83919,0.30847 -4.58508,0.84779 -4.20657,3.04162 0.66149,3.83395 1.30613,4.12185 4.60055,2.05461 2.99123,-1.87699 16.70434,-5.25601 21.67585,-5.34111 1.50507,-0.0258 10.50507,5.67053 20,12.65843 16.67213,12.27004 17.48045,12.69253 23.59658,12.33333 5.09552,-0.29925 6.33313,-0.84545 6.33334,-2.79511 z M 30.333334,197.22654 c -2.68032,-1.56114 -3.131569,-7.89496 -0.733333,-10.2932 0.88,-0.88 4.03,-1.61388 7,-1.63084 2.97,-0.017 12.6,-1.52735 21.400001,-3.35642 28.228085,-5.86717 36.887454,-7.50324 37.329741,-7.05298 0.237839,0.24213 0.835371,2.59776 1.327849,5.23474 0.895416,4.7945 0.895416,4.7945 -7.176759,6.50753 -4.439696,0.94217 -9.78059,1.37135 -11.868652,0.95374 -6.018559,-1.20371 -36.171332,5.17839 -39.57559,8.37652 -3.225543,3.03024 -4.349605,3.21423 -7.703257,1.26091 z m 28.333334,-9.77075 c 9.166667,-1.7999 18.316668,-2.94383 20.333334,-2.54207 3.781948,0.75346 4.484284,-0.22494 2.458061,-3.42422 -0.972585,-1.53565 -4.664443,-1.12438 -22.087671,2.46057 -11.505944,2.36743 -22.00484,4.0207 -23.33088,3.67394 -1.326041,-0.34677 -3.227402,-0.11322 -4.225247,0.519 -1.33745,0.84739 -1.046502,1.15486 1.107047,1.16991 1.606721,0.0112 3.307215,0.64483 3.778876,1.40799 0.471661,0.76316 1.857071,1.07704 3.078689,0.6975 1.221618,-0.37954 9.721124,-2.16272 18.887791,-3.96262 z m 106.682122,5.54422 c -0.6934,-1.65 -2.81084,-11.64827 -4.70544,-22.21837 -2.82329,-15.75141 -3.1319,-19.52222 -1.71069,-20.90274 2.17425,-2.11201 10.57558,-3.61403 12.53181,-2.24049 0.80545,0.56555 4.00923,5.07826 7.11952,10.02826 3.11028,4.95 6.13708,9 6.72622,9 1.48859,0 2.08553,-1.91185 4.0641,-13.01639 0.94891,-5.32568 2.37789,-10.2133 3.1755,-10.86138 2.37898,-1.93297 11.00368,-3.8889 12.65311,-2.8695 0.84265,0.52078 3.37621,10.76651 5.63013,22.76829 3.90976,20.81879 3.98837,21.9016 1.711,23.56686 -2.76388,2.021 -6.71693,2.28976 -7.80415,0.5306 -0.41296,-0.66817 -1.67841,-6.21817 -2.81213,-12.33333 -3.56098,-19.2076 -4.69434,-19.9985 -7.35146,-5.13014 -1.7159,9.60156 -4.80424,14.3103 -8.46452,12.90572 -1.09315,-0.41948 -4.46928,-4.69225 -7.50252,-9.49504 -8.56265,-13.558 -9.08061,-12.34009 -4.44093,10.44221 2.0817,10.22177 1.19655,12.82544 -4.36018,12.82544 -2.05469,0 -3.64954,-1.07292 -4.45937,-3 z m 7.46062,-3.33334 c -3.16941,-15.79371 -4.83894,-27.20686 -4.14427,-28.33085 1.88313,-3.04697 4.69372,-0.79846 10.83993,8.67209 3.96965,6.11674 7.27187,9.86825 8.49319,9.64874 1.35232,-0.24306 2.77056,-4.01282 4.38745,-11.66202 1.31405,-6.21657 2.92451,-11.83817 3.57879,-12.49245 3.02516,-3.02517 5.09728,0.7397 7.36848,13.38797 1.29475,7.21042 2.63869,13.85986 2.98654,14.77652 0.74305,1.95811 3.85075,2.21523 4.96591,0.41086 0.86192,-1.39462 -5.80318,-40.17498 -7.16993,-41.71767 -0.47434,-0.53541 -2.99861,-0.38365 -5.60947,0.33724 -4.64251,1.28186 -4.78481,1.52344 -6.46392,10.97348 -3.44933,19.41277 -5.71501,20.2294 -15.2914,5.51154 -6.43225,-9.88567 -6.68731,-10.0998 -11.1652,-9.37314 -2.52042,0.40901 -4.88475,1.04583 -5.25407,1.41515 -0.66151,0.6615 6.12836,39.16387 7.24958,41.10921 0.317,0.55 1.78863,1 3.27028,1 2.22831,0 2.56674,-0.63374 1.95811,-3.66667 z M 40.716315,172.48996 c -5.557561,-3.93092 -7.347901,-4.54318 -11.181853,-3.82392 -2.510659,0.471 -6.251572,2.10342 -8.31314,3.62761 -3.5569,2.62973 -3.922086,2.65737 -7.15148,0.54139 -6.6155543,-4.33467 -2.864733,-11.74416 5.715539,-11.29065 2.684708,0.1419 7.581286,-0.1795 10.881287,-0.71421 5.438605,-0.88125 6.681778,-0.52904 13.286629,3.76435 4.007645,2.60511 8.207646,4.47052 9.333333,4.14536 1.125688,-0.32517 5.498816,-1.20468 9.718063,-1.95448 4.219246,-0.7498 8.719246,-1.8973 10,-2.55001 2.602755,-1.32643 19.019568,-4.65997 19.672687,-3.99466 0.229972,0.23426 0.818535,2.56996 1.307919,5.19044 0.889788,4.7645 0.889788,4.7645 -6.881087,6.58806 -4.273982,1.00296 -9.997868,1.69613 -12.719746,1.54038 -2.721878,-0.15575 -9.321879,0.62913 -14.666667,1.74418 -5.344789,1.11505 -10.317798,1.99115 -11.051131,1.9469 -0.733333,-0.0443 -4.310992,-2.18658 -7.950353,-4.76074 z m 21.243749,0.0579 c 5.634915,-1.16533 11.662323,-1.76312 13.394239,-1.32844 3.578314,0.8981 5.053388,-0.6056 3.799484,-3.87322 -0.596027,-1.55323 -1.707543,-1.96303 -3.670992,-1.35347 -6.623195,2.05621 -19.125277,4.58378 -22.88679,4.62706 -2.51374,0.0289 -6.229141,-1.54052 -9.714123,-4.10341 -5.383709,-3.95922 -6.040176,-4.10776 -14.262671,-3.2272 -6.450155,0.69075 -8.61921,1.43698 -8.61921,2.9653 0,1.62859 1.012766,1.86277 5,1.15612 2.75,-0.48738 5.964973,-1.1676 7.144386,-1.51161 1.179412,-0.344 5.079412,1.4513 8.666666,3.98955 7.630232,5.39896 7.798949,5.42017 21.149011,2.65932 z m 232.738126,-2.14994 c -1.42778,-2.34779 -4.71973,-5.55046 -7.31545,-7.11704 -4.71949,-2.84833 -4.71949,-2.84833 -21.05111,0.24753 -8.98239,1.70272 -18.13162,3.97077 -20.33162,5.04012 -4.00577,1.94707 -19.15517,5.39425 -19.98683,4.54792 -0.24311,-0.2474 -0.8551,-2.66145 -1.35999,-5.36456 -0.91078,-4.87624 -0.87776,-4.92143 4.21442,-5.76754 2.82282,-0.46903 6.77823,-1.47846 8.78981,-2.24318 2.01158,-0.76472 4.80544,-1.09018 6.20857,-0.72325 1.40314,0.36693 11.1573,-1.04186 21.67592,-3.13064 19.12477,-3.79778 19.12477,-3.79778 25.79143,0.74198 3.66667,2.49687 8.33204,5.16772 10.3675,5.93522 4.31858,1.62839 5.58119,4.13552 4.41756,8.7718 -0.65868,2.62441 -1.68252,3.33035 -4.83006,3.33035 -3.06441,0 -4.59849,-0.99368 -6.59015,-4.26871 z m -49.91949,-3.70998 c 1.44591,-1.44591 32.26873,-8.02131 37.60068,-8.02131 1.87262,0 5.94464,2.12941 9.24748,4.83583 4.32487,3.54391 6.29695,4.44037 7.38176,3.35556 0.81415,-0.81415 1.22028,-1.65218 0.9025,-1.86228 -0.31778,-0.21011 -3.9893,-2.66668 -8.15895,-5.45905 -7.58117,-5.07703 -7.58117,-5.07703 -24.5463,-1.64021 -9.33082,1.89025 -19.1693,3.43682 -21.86327,3.43682 -5.7681,0 -6.61649,0.60593 -5.70874,4.0772 0.73249,2.80104 3.04665,3.37563 5.14484,1.27744 z M 45.798143,156.32381 c -3.777688,-2.74476 -8.727688,-6.01257 -11,-7.26179 -2.800648,-1.53969 -4.131475,-3.27913 -4.131475,-5.4 0,-7.21986 7.773808,-8.72099 11.591285,-2.23829 1.324793,2.24972 4.995596,5.80601 8.157339,7.90287 5.961515,3.95367 11.793056,4.25434 18.231379,0.93999 2.474183,-1.27367 21.031937,-5.26551 21.289509,-4.57945 2.286988,6.09154 2.962694,9.09066 2.159919,9.58681 -2.46981,1.52642 -14.80832,3.79433 -22.096097,4.06143 -4.4,0.16125 -10.1,0.67248 -12.666667,1.13605 -3.984985,0.71974 -5.669984,0.11388 -11.535192,-4.14762 z m 25.515194,0.43363 c 3.838388,-0.0656 5.431911,-0.70398 5.740491,-2.29979 0.678723,-3.50998 -1.870967,-4.07198 -8.406794,-1.85301 -10.046113,3.41075 -14.200827,2.75242 -22.116277,-3.50438 -6.155203,-4.86541 -8.168826,-5.29219 -8.034175,-1.70284 0.01645,0.43858 3.211453,3.16096 7.1,6.04974 6.6953,4.9739 7.423487,5.20326 13.736753,4.32669 3.666667,-0.5091 9.057668,-0.96649 11.980002,-1.01641 z M 223.625,159.0909 c -0.3546,-0.59999 -1.0581,-3.01872 -1.56331,-5.37495 -0.84034,-3.91915 -0.59816,-4.35317 2.8432,-5.09538 6.50385,-1.40272 14.98569,-3.05137 41.76178,-8.11744 16.87453,-3.19268 27.28661,-5.81379 29.66576,-7.46799 4.55814,-3.16922 8.68703,-2.0833 9.86082,2.59343 1.3787,5.49319 -0.95939,7.68816 -8.34089,7.83031 -10.12426,0.19496 -50.07624,8.43777 -53.86109,11.1125 -1.83814,1.299 -6.26485,2.80012 -9.83713,3.33582 -3.57229,0.53569 -7.25766,1.26663 -8.18973,1.6243 -0.93207,0.35766 -1.9848,0.1594 -2.33941,-0.4406 z m 17.60335,-6.2979 c 2.27818,-2.02783 47.24458,-11.47301 54.58098,-11.46472 3.5869,0.004 4.31065,-0.42578 3.64366,-2.16394 -0.45778,-1.19295 -0.1485,-2.99295 0.68727,-4 2.12057,-2.55512 0.25447,-2.28203 -4.64954,0.68042 -2.4495,1.47971 -15.24915,4.62923 -31.15738,7.66666 -25.58363,4.88482 -27,5.31262 -27,8.15525 0,3.47148 0.95129,3.74657 3.89501,1.12633 z M 52.207141,140.03809 c -5.907731,-4.66979 -6.805015,-6.04781 -7.596636,-11.66666 -0.493707,-3.50429 -2.157325,-8.95733 -3.696929,-12.11788 -2.931343,-6.01755 -2.464515,-8.56409 2.097485,-11.44172 1.607901,-1.01424 2.837366,-0.75897 4.770462,0.99045 2.03833,1.84467 2.588328,4.05076 2.530862,10.15152 -0.09181,9.74664 1.857559,14.54663 7.464275,18.37954 4.816144,3.29245 7.609707,3.74697 9.767483,1.58919 1.887413,-1.88741 19.426757,-5.49783 20.619293,-4.24441 0.517295,0.5437 1.142143,2.78229 1.388551,4.97463 0.430533,3.83054 0.135843,4.07351 -7.551985,6.22664 -4.4,1.2323 -11.396121,2.28857 -15.546937,2.34725 -6.857529,0.0969 -8.158884,-0.37702 -14.245924,-5.18855 z m 22.459528,-0.70475 c 0,-3.89983 -0.809457,-4.05545 -6.452254,-1.24045 -5.111187,2.5498 -7.632715,1.85056 -13.844416,-3.83914 -3.830361,-3.50847 -4.972279,-5.71716 -5.681473,-10.98905 -1.183142,-8.79505 -1.849974,-10.64276 -3.303766,-9.15432 -1.063249,1.08859 -0.295165,8.04511 1.925339,17.43774 0.37466,1.5848 3.201361,4.7348 6.281555,7 4.740182,3.48597 6.788751,4.11855 13.337685,4.11855 7.364263,0 7.73733,-0.16072 7.73733,-3.33333 z m 146.130981,4.47476 c -1.56554,-5.04985 -1.75295,-7.88435 -0.56965,-8.61567 2.06993,-1.27929 16.02829,-4.20948 20.43867,-4.29057 3.54131,-0.0651 56.4856,-10.02021 62.25213,-11.70525 2.53786,-0.74159 6.03453,4.40146 4.20473,6.18449 -0.61794,0.60214 -14.92352,3.8369 -31.79019,7.18836 -16.86667,3.35146 -32.16667,6.91694 -34,7.92328 -1.83333,1.00635 -5.73333,2.24813 -8.66667,2.75953 -2.93333,0.51139 -6.67774,1.25248 -8.32091,1.64686 -1.8607,0.44659 -3.199,0.0351 -3.54811,-1.09103 z m 18.66843,-5.14083 c 0.733,-0.733 15.103,-4.06404 31.93333,-7.4023 34.76451,-6.89546 34.83014,-6.91238 33.15689,-8.54739 -0.7237,-0.70716 -13.47002,1.21167 -31.22296,4.70029 -16.5,3.24241 -31.95,5.89983 -34.33333,5.90538 -3.73065,0.009 -4.33334,0.4737 -4.33334,3.34342 0,3.40458 2.39648,4.40353 4.79941,2.0006 z m -21.25328,-9.0006 c -0.33618,-0.55 -0.82159,-2.78178 -1.07869,-4.95951 -0.45296,-3.83684 -0.19894,-4.03254 8.19923,-6.31682 4.76667,-1.29653 9.69758,-2.12591 10.95758,-1.84308 4.05524,0.91027 53.05792,-9.48132 55.61265,-11.79331 1.31656,-1.19147 3.43797,-4.69853 4.71425,-7.793465 3.69474,-8.959664 4.15884,-9.603066 7.25842,-10.062834 6.67317,-0.98985 9.24461,6.978348 3.66768,11.365165 -1.71752,1.350999 -4.70876,4.968754 -6.6472,8.039444 -1.93845,3.0707 -4.58321,6.1456 -5.87725,6.83311 -1.29404,0.68751 -13.75126,3.47165 -27.68271,6.18698 -13.93146,2.71533 -26.53146,5.61379 -28.00001,6.44102 -2.44597,1.37782 -15.16148,4.61482 -18.92472,4.81769 -0.87339,0.0471 -1.86304,-0.36439 -2.19923,-0.91439 z m 20.74197,-6.29773 c 2.40821,-1.08041 14.27857,-3.80493 26.37857,-6.05449 12.1,-2.24955 23.82527,-4.67094 26.05615,-5.38086 5.21455,-1.6594 14.77631,-15.328838 11.58038,-16.555235 -1.11001,-0.42595 -2.1022,-0.610332 -2.20486,-0.409737 -0.10266,0.200595 -1.04577,2.066279 -2.09579,4.145963 -4.40913,8.732769 -5.89852,9.413069 -32.03857,14.634149 -13.54686,2.70578 -26.88064,4.91923 -29.63064,4.91877 -4.44467,-7.4e-4 -5,0.36939 -5,3.3325 0,3.863 0.97,4.05394 6.95476,1.36894 z M 97.394093,114.16828 c -2.487894,-6.62258 -3.898982,-15.465375 -3.177426,-19.911806 0.680597,-4.194026 0.226857,-5.282482 -3.720772,-8.925599 -3.580807,-3.304591 -5.286404,-3.995918 -8.379741,-3.396544 -4.66898,0.904673 -8.782818,-2.239393 -8.782818,-6.712407 0,-2.952348 3.110576,-7.221922 5.261494,-7.221922 0.58906,0 5.644874,3.34025 11.235142,7.422778 7.070363,5.163429 10.400928,8.511614 10.942118,11 0.4279,1.967472 1.31434,5.077223 1.96987,6.910556 1.61894,4.527704 3.98505,20.157004 3.23524,21.370234 -0.33245,0.53791 -2.16003,1.27539 -4.06128,1.63884 -2.650277,0.50663 -3.705316,-6.4e-4 -4.521827,-2.17413 z M 101.27449,98.190685 C 101.06522,92.770704 97.47029,83.835658 94.626371,81.667066 81.378282,71.564914 82.000002,71.872059 82.000002,75.429329 c 0,1.979931 0.776817,3.245044 2.000001,3.257176 1.1,0.01091 4.3719,2.026384 7.27089,4.478832 4.56777,3.864181 5.295584,5.23997 5.455998,10.313498 0.10181,3.219976 0.279909,6.28567 0.395777,6.812655 0.33835,1.53887 4.216592,-0.423501 4.151822,-2.100805 z M 215.54614,115 c -0.33619,-0.55 -0.8216,-2.75834 -1.07869,-4.90743 -0.43944,-3.67333 -0.068,-4.01453 6.19922,-5.69481 3.66667,-0.98305 10.42601,-2.05859 15.02076,-2.39009 4.59474,-0.3315 9.45765,-1.19334 10.80647,-1.9152 3.2139,-1.720026 13.06767,-16.977231 14.26829,-22.092468 1.77598,-7.566576 6.09904,-9.608298 10.3645,-4.895012 3.1806,3.514526 2.74601,5.880993 -1.89381,10.312224 -2.25525,2.153867 -6.86052,8.266986 -10.23393,13.584709 -5.03377,7.935057 -6.988,9.905967 -10.89954,10.992567 -2.62134,0.72818 -5.68257,1.32732 -6.80273,1.33141 -1.12016,0.004 -3.22016,0.81171 -4.66666,1.79471 -1.44651,0.983 -6.18008,2.483 -10.51906,3.33333 -9.31065,1.82466 -9.76881,1.84835 -10.56482,0.54606 z m 19.75088,-5.6079 c 0.43326,-0.70102 4.21867,-1.9605 8.41203,-2.79886 7.45269,-1.48997 7.74433,-1.7188 12.95762,-10.167044 2.93334,-4.753521 6.80472,-10.133605 8.60309,-11.955743 2.72209,-2.758086 2.94541,-3.518151 1.33333,-4.537964 -2.88182,-1.823051 -3.66433,-1.556893 -4.66172,1.585598 -1.39858,4.40653 -11.15745,18.976963 -13.64122,20.366953 -1.21959,0.68251 -5.83604,1.58759 -10.25879,2.01128 -7.04578,0.67498 -8.0941,1.14177 -8.46742,3.77035 -0.32064,2.25763 0.23729,3 2.25464,3 1.47439,0 3.03519,-0.57356 3.46844,-1.27457 z m -124.44313,3.38069 c -1.20555,-1.58406 -4.54832,-19.560024 -4.00484,-21.536305 0.51562,-1.875 -1.61724,-16.663262 -2.88373,-19.994384 -0.71041,-1.868518 -3.20257,-3.592054 -6.873255,-4.753424 -6.23547,-1.972845 -7.871146,-5.29591 -5.128872,-10.419896 2.281098,-4.26227 6.392555,-3.256894 12.772787,3.123336 5.35811,5.358114 5.98485,6.696927 7.33399,15.666668 0.81136,5.394336 2.56535,12.207884 3.89776,15.141218 1.3324,2.933333 2.82457,9.309387 3.31594,14.169007 0.89339,8.83568 0.89339,8.83568 -3.22045,9.43946 -2.26261,0.33208 -4.60681,-0.044 -5.20933,-0.83568 z m 4.51554,-16.831194 c 0.47308,-0.765457 0.11342,-2.291494 -0.79925,-3.391195 -0.91267,-1.0997 -2.74984,-7.758927 -4.08259,-14.798281 -1.33275,-7.039354 -2.58767,-12.863317 -2.78872,-12.942139 -0.20104,-0.07882 -1.9374,-1.524498 -3.85857,-3.212613 -3.49303,-3.069301 -3.49303,-3.069301 -4.227644,-0.26015 -0.546793,2.090937 0.06143,3.111805 2.378944,3.992922 1.71245,0.651074 3.43144,2.268142 3.81998,3.593483 1.50892,5.147158 3.52176,18.476266 3.52176,23.321259 0,4.147993 0.47831,5.088454 2.58797,5.088454 1.42339,0 2.97505,-0.626283 3.44812,-1.39174 z M 98.305558,56.527779 c -0.443055,-0.443055 -1.593055,-0.490424 -2.555555,-0.105263 -1.063644,0.425635 -0.747702,0.741577 0.805555,0.805556 1.405556,0.0579 2.193056,-0.257237 1.75,-0.700293 z m 26.287452,54.019701 c -1.02045,-1.65113 -3.62653,-14.951368 -3.63423,-18.547477 -0.007,-3.498131 -4.50764,-31.135556 -5.66388,-34.784394 -0.74972,-2.365921 -13.60328,-12.046947 -20.692758,-15.58533 -4.997894,-2.494467 -6.854092,-8.113557 -3.868556,-11.710907 2.594865,-3.126622 5.171773,-2.242895 10.363974,3.554231 2.69635,3.010482 8.33593,7.88583 12.5324,10.834107 4.19648,2.948277 7.91502,6.335156 8.26342,7.526398 0.3484,1.191241 1.91794,9.365894 3.48788,18.165894 1.56994,8.8 3.36746,16.620577 3.99449,17.379058 1.09202,1.320963 3.92654,16.25851 3.94752,20.80294 0.0105,2.26945 -7.52735,4.31184 -8.73026,2.36548 z m 3.79826,-16.716523 c 0.45964,-0.459642 0.034,-2.409642 -0.94586,-4.333333 -0.97987,-1.923692 -2.76805,-9.497622 -3.97375,-16.830955 -1.20569,-7.333334 -2.52816,-14.985278 -2.9388,-17.004321 -0.50743,-2.49486 -3.38226,-5.649298 -8.97308,-9.845797 -4.52454,-3.396146 -9.31813,-7.412157 -10.65242,-8.924469 -1.515692,-1.71792 -2.76644,-2.226022 -3.333334,-1.354128 -0.499046,0.767541 -1.807356,1.688777 -2.907357,2.047191 -1.371118,0.446752 -0.532609,1.409184 2.666667,3.060774 7.091644,3.660977 19.739674,13.74866 20.519494,16.365715 1.58508,5.31953 4.80563,26.739319 4.80958,31.988369 0.003,4.604511 0.46244,5.666666 2.4487,5.666666 1.34445,0 2.82052,-0.37607 3.28016,-0.835712 z m 9.12627,12.637923 c -1.4041,-3.71156 -3.47862,-17.068296 -3.02987,-19.507718 0.17255,-0.938029 -1.85482,-13.838029 -4.50528,-28.666667 -4.5919,-25.690473 -5.00354,-27.107106 -8.73404,-30.057798 -4.54048,-3.591356 -4.97392,-6.865097 -1.3439,-10.150223 3.46014,-3.131386 7.34691,-1.699776 9.85317,3.629207 1.10823,2.356376 4.19582,17.100759 6.86134,32.765295 2.66551,15.664537 5.66005,29.764537 6.65454,31.333335 0.99448,1.568797 2.22568,7.202358 2.73598,12.519025 0.78384,8.166434 0.61336,9.666664 -1.09844,9.666664 -1.11445,0 -2.967,0.361 -4.11679,0.80221 -1.39858,0.53669 -2.48313,-0.23562 -3.27671,-2.33333 z m 5.14913,-15.752868 c 0,-0.535136 -0.84345,-2.715157 -1.87434,-4.844492 -1.03088,-2.129335 -4.03876,-16.691566 -6.68418,-32.360514 -2.64541,-15.668948 -5.14022,-29.023551 -5.54401,-29.676895 -0.40378,-0.653345 -1.63876,-0.283297 -2.74438,0.822329 -1.7218,1.7218 -1.74275,2.277707 -0.146,3.874455 1.78373,1.783738 10.40728,49.289876 10.35177,57.026724 -0.0395,5.504402 1.18568,7.558001 4.06058,6.806197 1.41931,-0.371156 2.58056,-1.112669 2.58056,-1.647804 z m 8.75115,14.754028 c -0.41008,-0.66353 -1.4056,-5.915734 -2.21227,-11.671562 -0.80666,-5.755828 -3.20791,-21.278574 -5.3361,-34.49499 C 141.74125,46.087072 140,33.757071 140,31.903487 c 0,-6.499884 5.66815,-8.690127 10.0264,-3.874323 2.31632,2.559511 2.32563,2.935007 0.18415,7.425744 -2.15952,4.528569 -2.11178,5.56316 1.12153,24.304171 1.85739,10.765841 4.07357,20.774257 4.92484,22.240923 1.78803,3.08062 5.00467,21.915038 3.85009,22.543508 -2.49598,1.35864 -8.05573,1.95148 -8.68919,0.92653 z M 156,87.444494 c 0,-0.867804 -0.59978,-2.177614 -1.33286,-2.91069 -1.67434,-1.674339 -7.98717,-36.575798 -7.9948,-44.200469 -0.004,-4.145629 -0.54251,-5.666667 -2.00567,-5.666667 -2.63123,0 -2.56278,0.95249 1.91618,26.664416 2.10758,12.098763 3.5499,22.454132 3.20516,23.011932 -0.34474,0.557801 -0.2672,2.147184 0.17231,3.531963 C 150.83715,90.637608 156,90.269621 156,87.444494 Z m 8.74271,15.345216 c -0.38171,-0.61762 -1.27908,-5.24797 -1.99415,-10.289662 -0.71507,-5.041692 -2.53326,-17.566712 -4.04041,-27.833379 -1.50715,-10.266667 -2.73047,-19.866668 -2.7185,-21.333334 0.012,-1.466667 1.81663,-5.366667 4.01035,-8.666667 2.19373,-3.3 3.99116,-7.257008 3.9943,-8.79335 0.006,-2.844716 3.78108,-7.206651 6.23738,-7.206651 2.02385,0 5.76833,4.567569 5.76833,7.036292 0,1.187808 -1.56061,3.840563 -3.46801,5.895013 -1.9074,2.054449 -4.8573,6.135362 -6.55532,9.068696 -3.08732,5.333333 -3.08732,5.333333 -0.57355,20 1.38257,8.066667 3.21821,16.166668 4.07921,18.000001 1.26939,2.702962 5.31909,22.964791 4.69193,23.475151 -1.17409,0.95542 -8.91294,1.48703 -9.43156,0.64789 z m 4.59063,-17.699538 c 0,-0.696014 -0.658,-2.494963 -1.46222,-3.997664 -1.6178,-3.022892 -6.53778,-28.871928 -6.53778,-34.348799 0,-1.909151 2.12912,-6.704093 4.73138,-10.655426 3.49477,-5.306531 4.2955,-7.453634 3.06366,-8.214951 -1.87684,-1.159953 -3.79504,-0.367774 -3.79504,1.567279 0,0.705777 -1.59628,3.69537 -3.54729,6.643539 -4.18459,6.323343 -4.21775,8.572775 -0.43768,29.686238 1.5282,8.535664 2.67889,16.279189 2.55711,17.207835 -0.48838,3.723994 0.2027,4.743838 2.76119,4.074778 1.46667,-0.383542 2.66667,-1.266815 2.66667,-1.962829 z m 8.88467,15.248058 c -0.57815,-0.949192 -1.27725,-5.424963 -5.02745,-32.186746 -1.54717,-11.040737 -1.51975,-11.27631 2.1727,-18.666667 2.05681,-4.116649 4.15581,-8.384816 4.66444,-9.484816 1.36521,-2.952466 5.14779,-3.222815 8.07151,-0.576887 3.86077,3.493946 3.14164,6.57204 -2.94277,12.595941 -5.51023,5.455435 -5.51023,5.455435 -4.60131,14.326988 0.49991,4.879354 1.57355,9.67238 2.38587,10.651169 1.82082,2.193952 5.16079,20.688806 3.94238,21.830647 -1.52564,1.429761 -8.0245,2.562511 -8.66537,1.510371 z m 4.44866,-18.071561 c 0,-0.953333 -0.5697,-2.303333 -1.26599,-3 -0.6963,-0.696667 -1.98259,-5.606752 -2.85843,-10.911301 -1.55819,-9.437196 -1.51712,-9.758438 1.90913,-14.935854 3.95302,-5.973426 2.25596,-9.368715 -1.97163,-3.944606 -3.84777,4.936787 -4.35379,8.820794 -2.5757,19.769852 0.90346,5.563316 1.5236,10.709148 1.37808,11.435182 -0.5177,2.582948 0.0857,3.320061 2.71788,3.320061 1.46666,0 2.66666,-0.780001 2.66666,-1.733334 z m 3.63889,-41.73889 c -0.44305,-0.443056 -1.59305,-0.490424 -2.55555,-0.105263 -1.06365,0.425635 -0.74771,0.741577 0.80555,0.805555 1.40556,0.0579 2.19306,-0.257236 1.75,-0.700292 z m 4.9564,54.602204 c -0.46975,-2.088156 -1.39251,-5.896647 -2.05059,-8.463314 -0.65807,-2.566666 -1.19984,-7.024068 -1.20393,-9.905336 -0.004,-2.881268 -0.73759,-7.257869 -1.62999,-9.725779 -1.7351,-4.798332 -0.80698,-7.632931 3.3598,-10.26127 1.72437,-1.087707 2.88475,-0.744884 5.15165,1.522017 2.62189,2.621896 2.76884,3.437856 1.41408,7.852071 -1.14627,3.734873 -1.1277,5.602277 0.0768,7.722209 1.95426,3.439614 4.95423,21.121124 3.79518,22.368405 -0.46287,0.498107 -2.46547,1.306599 -4.45022,1.796647 -3.17718,0.784467 -3.71076,0.437057 -4.46274,-2.90565 z m 4.73805,-16.384625 c 0,-1.423387 -0.6,-2.958797 -1.33334,-3.412022 -0.73333,-0.453225 -1.33333,-2.588636 -1.33333,-4.745357 0,-2.722454 -0.659,-3.92131 -2.15551,-3.92131 -1.58467,0 -1.94259,0.794488 -1.35154,3 0.44218,1.65 0.81216,4.95 0.82218,7.333333 0.0144,3.438376 0.56895,4.333334 2.68487,4.333334 1.75075,0 2.66667,-0.888889 2.66667,-2.587978 z"
         id="path3355" />
      <path
         style="fill:#807dc1"
         d="m 150.19729,313.71692 c -1.43544,-8.68592 -0.98441,-11.06136 3.27591,-17.25353 3.82381,-5.55772 4.06963,-6.57922 3.21991,-13.38018 -0.50598,-4.04971 -1.81731,-10.38481 -2.91407,-14.078 -1.64967,-5.55505 -1.68766,-6.90917 -0.21991,-7.83963 2.21537,-1.40441 3.74829,-1.47017 3.8593,-0.16557 0.0468,0.55 0.23384,3.7 0.41564,7 0.18181,3.3 0.81938,9.98164 1.41682,14.8481 1.05498,8.59343 0.96173,9.02907 -3.23969,15.13563 -4.24517,6.17013 -4.69027,9.36446 -2.4872,17.8496 0.2618,1.00834 -0.19182,2.08094 -1.00805,2.38358 -0.84789,0.31437 -1.84183,-1.61465 -2.31866,-4.5 z m -27.53062,-2.23519 c 0,-1.22896 1.09456,-2.14839 2.55762,-2.14839 4.89752,0 6.88751,-1.70573 13.01605,-11.15678 6.16669,-9.50988 6.16669,-9.50988 4.57977,-18.82662 -0.8728,-5.12421 -2.16438,-9.89421 -2.87018,-10.6 -2.09052,-2.09053 -1.47125,-4.38975 1.38341,-5.13626 1.46666,-0.38355 2.71006,-0.30352 2.76311,0.17782 0.053,0.48135 0.24386,2.97517 0.42404,5.54184 0.18018,2.56667 0.81191,8.39576 1.40385,12.95354 1.07582,8.28347 1.0737,8.29098 -5.165,18.30056 -7.1304,11.44026 -6.5137,10.87045 -13.10282,12.10658 -4.08702,0.76673 -4.98985,0.54738 -4.98985,-1.21229 z m 49,-4.36476 c 0.91667,-0.36988 2.41667,-0.36988 3.33334,0 0.91666,0.36988 0.16666,0.67251 -1.66667,0.67251 -1.83333,0 -2.58333,-0.30263 -1.66667,-0.67251 z m 19.07437,-3.70446 c -2.39469,-2.54903 -3.74109,-7.09948 -6.21356,-21 -1.73603,-9.76021 -3.84567,-19.41507 -4.68809,-21.45526 -1.72373,-4.17458 -1.57984,-4.51846 2.16062,-5.16382 2.22616,-0.38409 2.61672,0.20066 2.36433,3.53991 -0.45824,6.06278 4.86639,35.6004 7.01215,38.89888 1.03719,1.59438 3.13338,3.29484 4.65819,3.7788 2.21573,0.70324 2.4578,1.25898 1.2056,2.76779 -2.13717,2.57513 -2.95871,2.40242 -6.49924,-1.3663 z m -18.07437,-3.4125 c -0.45322,-0.73333 -0.53212,-1.80568 -0.17532,-2.38299 0.63744,-1.0314 -4.61822,-30.07561 -6.50535,-35.95035 -0.9363,-2.91476 -0.47545,-3.2265 4.34734,-2.94074 0.55,0.0326 0.82486,1.73368 0.6108,3.78021 -0.21405,2.04654 0.83595,10.52481 2.33334,18.84061 1.49739,8.3158 2.72253,16.2147 2.72253,17.55311 0,2.61959 -1.98863,3.27593 -3.33334,1.10015 z m 55.21836,-8.44152 c -2.62301,-2.32383 -7.33782,-6.32515 -10.47735,-8.89181 -5.2139,-4.26253 -5.85582,-5.47495 -7.41237,-14.00001 -0.93727,-5.13333 -2.14464,-11.28333 -2.68305,-13.66666 -0.87905,-3.89126 -0.67401,-4.33334 2.00985,-4.33334 2.54324,0 2.88322,0.54658 2.28069,3.66667 -0.62773,3.25057 0.74626,14.43989 2.52284,20.54521 0.81424,2.79816 13.78018,12.65039 20.28138,15.41088 3.21619,1.36563 4.23204,2.31919 2.92632,2.74687 -1.1,0.36031 -2.60282,1.12585 -3.33959,1.70122 -0.74759,0.58381 -3.4472,-0.8211 -6.10872,-3.17903 z M 104,291.98245 c 0,-0.77094 -1.35,-1.9376 -3,-2.59257 -2.604813,-1.034 -2.385266,-1.17929 1.66667,-1.10299 2.56667,0.0483 7.83053,-0.35466 11.69748,-0.89553 5.89983,-0.82521 7.59946,-1.72894 10.56593,-5.61818 3.19091,-4.18351 3.38265,-5.05646 1.96919,-8.96531 -2.03765,-5.63502 -2.02498,-5.71014 1.10073,-6.52753 2.417,-0.63206 2.66667,-0.0409 2.66667,6.31398 0,10.2754 -3.92227,15.54859 -13.07746,17.58164 -3.85109,0.8552 -8.48411,1.92689 -10.29559,2.38154 C 105.35545,293.04395 104,292.80729 104,291.98245 Z m 97.33334,-15.76022 c 0,-0.85556 -1.2,-1.55556 -2.66667,-1.55556 -2.18219,0 -2.6773,-0.90839 -2.72519,-5 -0.0322,-2.75 -0.86634,-7.26412 -1.85367,-10.03139 -1.64279,-4.60434 -1.58123,-5.14589 0.72519,-6.38025 3.02469,-1.61877 2.75104,-2.21384 3.10173,6.74498 0.15789,4.03333 1.3359,9.33909 2.61782,11.79057 1.28191,2.45148 1.98651,4.80148 1.56577,5.22222 -0.42074,0.42074 -0.76498,0.065 -0.76498,-0.79057 z m 28.3894,-7.80861 c -6.14117,-4.49296 -7.1319,-5.90208 -8.56979,-12.18879 -1.34867,-5.8966 -1.31225,-7.30232 0.21361,-8.24535 3.0205,-1.86677 4.02232,-0.12975 3.13295,5.43208 -0.7759,4.85219 -0.44826,5.60906 4.31781,9.97461 6.78919,6.21866 9.30909,6.68399 22.26703,4.11185 13.14528,-2.60933 12.91566,-2.60215 12.91566,-0.40373 0,1.15879 -3.53351,2.35236 -10.33334,3.49047 -5.68333,0.95123 -11.83333,1.99493 -13.66666,2.31933 -2.36378,0.41825 -5.35311,-0.88788 -10.27727,-4.49047 z M 67.405179,264.11625 c -0.413711,-0.6694 2.548819,-6.00917 6.583399,-11.86616 7.224635,-10.48799 14.910074,-17.2181 17.128666,-14.99951 1.704603,1.7046 0.449419,6.05763 -1.805718,6.26229 -1.088005,0.0987 -2.882297,0.24875 -3.987318,0.33334 -1.10502,0.0846 -5.000913,4.9538 -8.657539,10.82046 -6.585271,10.56537 -7.803622,11.80846 -9.26149,9.44958 z m -34.738511,-6.78291 c -0.453225,-0.73333 0.146775,-1.33333 1.333333,-1.33333 1.186558,0 1.786558,0.6 1.333333,1.33333 -0.453225,0.73333 -1.053225,1.33333 -1.333333,1.33333 -0.280108,0 -0.880108,-0.6 -1.333333,-1.33333 z m 4.666666,-4.2425 c 0,-1.55774 0.980352,-2.42417 2.742907,-2.42417 1.508599,0 5.428917,-0.67634 8.711818,-1.50299 5.380587,-1.35484 6.571279,-2.43906 12.080287,-11 3.361256,-5.22335 6.313278,-9.71935 6.560048,-9.99109 0.24677,-0.27175 3.926333,-1.36861 8.176807,-2.43747 15.013395,-3.7754 14.007301,-3.75708 13.510811,-0.24606 -0.380589,2.69141 -1.092307,3.11334 -4.65146,2.75756 -2.311165,-0.23104 -6.635342,0.23514 -9.609284,1.03594 -4.618016,1.2435 -6.437158,2.93878 -12.46455,11.61584 -7.052946,10.15346 -7.063042,10.16125 -16.057383,12.38823 -8.628102,2.13629 -9.000001,2.1282 -9.000001,-0.19579 z m 11.057855,-28.82085 c -2.747144,-1.74601 5.563686,-9.36074 11.288959,-10.34342 4.286476,-0.73573 11.808334,-2.45742 23.986521,-5.49031 2.541261,-0.63288 3,-0.20976 3,2.76705 0,3.04622 -0.427255,3.40693 -3.208594,2.70886 -3.298672,-0.82791 -23.696441,2.77874 -27.701107,4.898 -1.233669,0.65285 -2.624102,2.38764 -3.089851,3.85509 -0.913304,2.87756 -1.768368,3.19846 -4.275928,1.60473 z m 211.651551,-1.52347 c -0.76143,-1.42275 -4.08254,-4.52446 -7.38025,-6.89269 -4.15859,-2.98648 -5.99582,-5.25801 -5.99582,-7.41318 0,-3.75182 2.64556,-4.14273 3.59018,-0.53049 0.69317,2.6507 7.59563,7.98591 14.07649,10.88032 3.97504,1.77529 4.87838,3.87619 1.66667,3.87619 -1.1,0 -2,0.6 -2,1.33334 0,2.26385 -2.49838,1.47247 -3.95727,-1.25349 z m 41.81274,-5.84153 c -1.38717,-1.81943 -9.25726,-8.22262 -17.48907,-14.22931 -14.61519,-10.66457 -15.10089,-10.89911 -20.66667,-9.97964 -3.13485,0.51788 -8.33229,1.82496 -11.54987,2.90461 -4.85442,1.6289 -6.04216,1.65974 -6.97832,0.18118 -1.74519,-2.75629 -0.55391,-4.46759 2.9634,-4.25697 1.75912,0.10534 7.04013,-0.59063 11.73559,-1.54659 4.69546,-0.95596 9.49546,-1.40116 10.66667,-0.98934 1.1712,0.41182 8.42946,5.38444 16.12947,11.05028 7.7,5.66583 16.03737,11.33544 18.52749,12.59913 3.13914,1.59306 4.01083,2.61694 2.84262,3.33893 -0.92668,0.57272 -2.12909,1.76007 -2.67202,2.63855 -0.68822,1.11356 -1.7509,0.59549 -3.50929,-1.71083 z M 28.816704,212.24277 c -0.999023,-1.61645 5.471277,-8.10346 8.88959,-8.91254 1.628205,-0.38539 11.360374,-2.44388 21.627041,-4.57444 10.266667,-2.13055 19.934039,-4.27057 21.483049,-4.75558 2.162124,-0.677 2.989864,-0.21846 3.56317,1.97387 0.779541,2.98096 -1.7507,4.98398 -4.303135,3.40649 -0.761539,-0.47066 -10.840271,1.00379 -22.397184,3.27654 -19.816315,3.89704 -24.345901,5.68271 -24.345901,9.59774 0,1.40872 -3.644548,1.39898 -4.51663,-0.0121 z m 87.221286,-9.24276 c 0.0628,-3.85776 6.35837,-43.17414 7.01908,-43.83485 0.33689,-0.33689 2.68282,-0.94849 5.21317,-1.35911 4.60064,-0.74658 4.60064,-0.74658 15.1652,17.72369 5.81051,10.15865 10.75856,19.22027 10.99566,20.13693 0.76085,2.94149 -6.15652,1.96559 -7.09821,-1.00141 -1.40813,-4.43663 -4.7249,-5.27814 -13.1157,-3.32763 -8.95769,2.08228 -10.95866,3.45603 -12.19208,8.37038 -1.31825,5.25231 -6.0615,7.86037 -5.98712,3.292 z m 21.383,-16.38025 c 3.55024,-1.90003 3.22522,-4.78266 -1.46047,-12.95309 -4.59383,-8.01024 -8.62602,-9.38409 -9.78321,-3.33333 -1.78845,9.35157 -2.32448,15.0165 -1.54088,16.2844 1.10354,1.78557 9.44951,1.78689 12.78456,0.002 z m 151.31551,2.08551 c -9.49493,-6.9879 -18.49493,-12.68419 -20,-12.65843 -4.97151,0.0851 -18.68462,3.46412 -21.67585,5.34111 -3.29442,2.06724 -3.93906,1.77934 -4.60055,-2.05461 -0.37851,-2.19383 0.36738,-2.73315 4.20657,-3.04162 2.56667,-0.20623 9.06301,-1.25254 14.43631,-2.32514 11.55691,-2.30695 9.91955,-2.96696 30.59867,12.33424 15.16404,11.22041 18.13288,12.52622 23.96503,10.54078 2.3853,-0.81203 2.99994,-0.52479 2.99974,1.40189 -2.1e-4,1.94966 -1.23782,2.49586 -6.33334,2.79511 -6.11613,0.3592 -6.92445,-0.0633 -23.59658,-12.33333 z m -121.15548,3.62807 c -1.12122,-1.94534 -7.91109,-40.44771 -7.24958,-41.10921 0.36932,-0.36932 2.73365,-1.00614 5.25407,-1.41515 4.47789,-0.72666 4.73295,-0.51253 11.1652,9.37314 9.57639,14.71786 11.84207,13.90123 15.2914,-5.51154 1.67911,-9.45004 1.82141,-9.69162 6.46392,-10.97348 2.61086,-0.72089 5.13513,-0.87265 5.60947,-0.33724 1.36675,1.54269 8.03185,40.32305 7.16993,41.71767 -1.11516,1.80437 -4.22286,1.54725 -4.96591,-0.41086 -0.34785,-0.91666 -1.69179,-7.5661 -2.98654,-14.77652 -2.2712,-12.64827 -4.34332,-16.41314 -7.36848,-13.38797 -0.65428,0.65428 -2.26474,6.27588 -3.57879,12.49245 -1.61689,7.6492 -3.03513,11.41896 -4.38745,11.66202 -1.22132,0.21951 -4.52354,-3.532 -8.49319,-9.64874 -6.14621,-9.47055 -8.9568,-11.71906 -10.83993,-8.67209 -0.69467,1.12399 0.97486,12.53714 4.14427,28.33085 0.60863,3.03293 0.2702,3.66667 -1.95811,3.66667 -1.48165,0 -2.95328,-0.45 -3.27028,-1 z M 36.700188,190.72091 c -0.471661,-0.76316 -2.172155,-1.39676 -3.778876,-1.40799 -2.153549,-0.0151 -2.444497,-0.32252 -1.107047,-1.16991 0.997845,-0.63222 2.899206,-0.86577 4.225247,-0.519 1.32604,0.34676 11.824936,-1.30651 23.33088,-3.67394 17.423228,-3.58495 21.115086,-3.99622 22.087671,-2.46057 2.026223,3.19928 1.323887,4.17768 -2.458061,3.42422 -3.043995,-0.60643 -31.548606,4.12096 -39.221125,6.50469 -1.221618,0.37954 -2.607028,0.0657 -3.078689,-0.6975 z m 4.110865,-20.83233 c -3.587254,-2.53825 -7.487254,-4.33355 -8.666666,-3.98955 -1.179413,0.34401 -4.394386,1.02423 -7.144386,1.51161 -3.987234,0.70665 -5,0.47247 -5,-1.15612 0,-1.52832 2.169055,-2.27455 8.61921,-2.9653 8.222495,-0.88056 8.878962,-0.73202 14.262671,3.2272 3.484982,2.56289 7.200383,4.13234 9.714123,4.10341 3.761513,-0.0433 16.263595,-2.57085 22.88679,-4.62706 1.963449,-0.60956 3.074965,-0.19976 3.670992,1.35347 1.253904,3.26762 -0.22117,4.77132 -3.799484,3.87322 -1.731916,-0.43468 -7.759324,0.16311 -13.394239,1.32844 -13.350062,2.76085 -13.518779,2.73964 -21.149011,-2.65932 z m 198.822807,-4.47804 c -0.90775,-3.47127 -0.0594,-4.0772 5.70874,-4.0772 2.69397,0 12.53245,-1.54657 21.86327,-3.43682 16.96513,-3.43682 16.96513,-3.43682 24.5463,1.64021 4.16965,2.79237 7.84117,5.24894 8.15895,5.45905 0.31778,0.2101 -0.0883,1.04813 -0.9025,1.86228 -1.08481,1.08481 -3.05689,0.18835 -7.38176,-3.35556 -3.30284,-2.70642 -7.37486,-4.83583 -9.24748,-4.83583 -5.33195,0 -36.15477,6.5754 -37.60068,8.02131 -2.09819,2.09819 -4.41235,1.5236 -5.14484,-1.27744 z M 45.596582,153.44716 c -3.888547,-2.88878 -7.083547,-5.61116 -7.1,-6.04974 -0.134651,-3.58935 1.878972,-3.16257 8.034175,1.70284 7.91545,6.2568 12.070164,6.91513 22.116277,3.50438 6.535827,-2.21897 9.085517,-1.65697 8.406794,1.85301 -0.30858,1.59581 -1.902103,2.23422 -5.740491,2.29979 -2.922334,0.0499 -8.313335,0.50731 -11.980002,1.01641 -6.313266,0.87657 -7.041453,0.64721 -13.736753,-4.32669 z m 191.736758,-1.78049 c 0,-2.84263 1.41637,-3.27043 27,-8.15525 15.90823,-3.03743 28.70788,-6.18695 31.15738,-7.66666 4.90401,-2.96245 6.77011,-3.23554 4.64954,-0.68042 -0.83577,1.00705 -1.14505,2.80705 -0.68727,4 0.66699,1.73816 -0.0568,2.16799 -3.64366,2.16394 -7.3364,-0.008 -52.3028,9.43689 -54.58098,11.46472 -2.94372,2.62024 -3.89501,2.34515 -3.89501,-1.12633 z M 53.591654,138.54812 c -3.080194,-2.2652 -5.906895,-5.4152 -6.281555,-7 -2.220504,-9.39263 -2.988588,-16.34915 -1.925339,-17.43774 1.453792,-1.48844 2.120624,0.35927 3.303766,9.15432 0.709194,5.27189 1.851112,7.48058 5.681473,10.98905 6.211701,5.6897 8.733229,6.38894 13.844416,3.83914 5.642797,-2.815 6.452254,-2.65938 6.452254,1.24045 0,3.17261 -0.373067,3.33333 -7.73733,3.33333 -6.548934,0 -8.597503,-0.63258 -13.337685,-4.11855 z m 181.075016,-1.88145 c 0,-2.86972 0.60269,-3.33474 4.33334,-3.34342 2.38333,-0.006 17.83333,-2.66297 34.33333,-5.90538 17.75294,-3.48862 30.49926,-5.40745 31.22296,-4.70029 1.67325,1.63501 1.60762,1.65193 -33.15689,8.54739 -16.83033,3.33826 -31.20033,6.6693 -31.93333,7.4023 -2.40293,2.40293 -4.79941,1.40398 -4.79941,-2.0006 z M 232.00001,122 c 0,-2.96311 0.55533,-3.33324 5,-3.3325 2.75,4.6e-4 16.08378,-2.21299 29.63064,-4.91877 26.14005,-5.22108 27.62944,-5.90138 32.03857,-14.634149 1.05002,-2.079684 1.99313,-3.945368 2.09579,-4.145963 0.10266,-0.200595 1.09485,-0.01621 2.20486,0.409737 3.19593,1.226397 -6.36583,14.895835 -11.58038,16.555235 -2.23088,0.70992 -13.95615,3.13131 -26.05615,5.38086 -12.1,2.24956 -23.97036,4.97408 -26.37857,6.05449 -5.98476,2.685 -6.95476,2.49406 -6.95476,-1.36894 z m -2.42607,-14.33333 c 0.37332,-2.62858 1.42164,-3.09537 8.46742,-3.77035 4.42275,-0.42369 9.0392,-1.32877 10.25879,-2.01128 2.48377,-1.38999 12.24264,-15.960423 13.64122,-20.366953 0.99739,-3.142491 1.7799,-3.408649 4.66172,-1.585598 1.61208,1.019813 1.38876,1.779878 -1.33333,4.537964 -1.79837,1.822138 -5.66975,7.202222 -8.60309,11.955743 -5.21329,8.448244 -5.50493,8.677074 -12.95762,10.167044 -4.19336,0.83836 -7.97877,2.09784 -8.41203,2.79886 -0.43325,0.70101 -1.99405,1.27457 -3.46844,1.27457 -2.01735,0 -2.57528,-0.74237 -2.25464,-3 z M 97.122668,100.29149 C 97.0068,99.764505 96.828701,96.698811 96.726891,93.478835 96.566477,88.405307 95.838663,87.029518 91.270893,83.165337 c -2.89899,-2.452448 -6.17089,-4.467923 -7.27089,-4.478832 -1.223184,-0.01213 -2.000001,-1.277245 -2.000001,-3.257176 0,-3.55727 -0.62172,-3.864415 12.626369,6.237737 2.843919,2.168592 6.438849,11.103638 6.648119,16.523619 0.0648,1.677304 -3.813472,3.639675 -4.151822,2.100805 z m 12.210672,-8.046608 c 0,-4.844993 -2.01284,-18.174101 -3.52176,-23.321259 -0.38854,-1.325341 -2.10753,-2.942409 -3.81998,-3.593483 -2.317514,-0.881117 -2.925737,-1.901985 -2.378944,-3.992922 0.734614,-2.809151 0.734614,-2.809151 4.227644,0.26015 1.92117,1.688115 3.65753,3.133791 3.85857,3.212613 0.20105,0.07882 1.45597,5.902785 2.78872,12.942139 1.33275,7.039354 3.16992,13.698581 4.08259,14.798281 2.05914,2.481116 0.78436,4.782935 -2.64887,4.782935 -2.10966,0 -2.58797,-0.940461 -2.58797,-5.088454 z m 13.32907,-3.244879 c -0.004,-5.24905 -3.2245,-26.668839 -4.80958,-31.988369 -0.77982,-2.617055 -13.42785,-12.704738 -20.519494,-16.365715 -3.199276,-1.65159 -4.037785,-2.614022 -2.666667,-3.060774 1.100001,-0.358414 2.408311,-1.27965 2.907357,-2.047191 0.566894,-0.871894 1.817642,-0.363792 3.333334,1.354128 1.33429,1.512312 6.12788,5.528323 10.65242,8.924469 5.59082,4.196499 8.46565,7.350937 8.97308,9.845797 0.41064,2.019043 1.73311,9.670987 2.9388,17.004321 1.2057,7.333333 2.99388,14.907263 3.97375,16.830955 1.96152,3.850894 1.36625,5.169045 -2.3343,5.169045 -1.98626,0 -2.44524,-1.062155 -2.4487,-5.666666 z m 14.09037,2.076939 c -0.41403,-1.078938 -0.74129,-3.562633 -0.72725,-5.519323 0.0555,-7.736848 -8.56804,-55.242986 -10.35177,-57.026724 -1.59675,-1.596748 -1.5758,-2.152655 0.146,-3.874455 1.10562,-1.105626 2.3406,-1.475674 2.74438,-0.822329 0.40379,0.653344 2.8986,14.007947 5.54401,29.676895 2.64542,15.668948 5.6533,30.231179 6.68418,32.360514 2.44306,5.046231 2.37336,5.686969 -0.70622,6.492296 -1.53815,0.402237 -2.88463,-0.11759 -3.33333,-1.286874 z m 13.20754,-3.201963 c -0.43951,-1.384779 -0.51705,-2.974162 -0.17231,-3.531963 0.34474,-0.5578 -1.09758,-10.913169 -3.20516,-23.011932 -4.47896,-25.711926 -4.54741,-26.664416 -1.91618,-26.664416 1.46316,0 2.00152,1.521038 2.00567,5.666667 0.008,7.624671 6.32046,42.52613 7.9948,44.200469 2.12511,2.125106 1.55121,4.431417 -1.28742,5.173735 -1.78164,0.465908 -2.87605,-0.12062 -3.4194,-1.83256 z m 13.88171,-1.666469 c -0.0869,-0.848013 -0.0583,-2.301642 0.0635,-3.230287 0.12178,-0.928646 -1.02891,-8.672171 -2.55711,-17.207835 -3.78007,-21.113463 -3.74691,-23.362895 0.43768,-29.686238 1.95101,-2.948169 3.54729,-5.937762 3.54729,-6.643539 0,-1.935053 1.9182,-2.727232 3.79504,-1.567279 1.23184,0.761317 0.43111,2.90842 -3.06366,8.214951 -2.60226,3.951333 -4.73138,8.746275 -4.73138,10.655426 0,5.476871 4.91998,31.325907 6.53778,34.348799 0.80422,1.502701 1.46222,3.30165 1.46222,3.997664 0,1.861167 -5.30451,2.941463 -5.49131,1.118338 z m 13.33341,-3.208508 c -0.0868,-0.55 -0.0388,-1.594027 0.10669,-2.32006 0.14552,-0.726034 -0.47462,-5.871866 -1.37808,-11.435182 -1.77809,-10.949058 -1.27207,-14.833065 2.5757,-19.769852 4.22759,-5.424109 5.92465,-2.02882 1.97163,3.944606 -3.42625,5.177416 -3.46732,5.498658 -1.90913,14.935854 0.87584,5.304549 2.16213,10.214634 2.85843,10.911301 2.15798,2.159126 1.39623,4.733334 -1.40067,4.733334 -1.46667,0 -2.73772,-0.450001 -2.82457,-1.000001 z m 13.47303,-6 c -0.01,-2.383333 -0.38,-5.683333 -0.82218,-7.333333 -0.59105,-2.205512 -0.23313,-3 1.35154,-3 1.49651,0 2.15551,1.198856 2.15551,3.92131 0,2.156721 0.6,4.292132 1.33333,4.745357 2.48657,1.536785 1.49475,6 -1.33333,6 -2.11592,0 -2.67043,-0.894958 -2.68487,-4.333334 z M 95.750003,56.422516 c 0.9625,-0.385161 2.1125,-0.337792 2.555555,0.105263 0.443056,0.443056 -0.344444,0.758188 -1.75,0.700293 -1.553257,-0.06398 -1.869199,-0.379921 -0.805555,-0.805556 z m 88.000007,-16 c 0.9625,-0.385161 2.1125,-0.337793 2.55555,0.105263 0.44306,0.443056 -0.34444,0.758187 -1.75,0.700292 -1.55326,-0.06398 -1.8692,-0.37992 -0.80555,-0.805555 z"
         id="path3354" />
    </g>
  </g>
</svg>
